<svg t="1628687105988" class="icon" viewBox="0 0 1024 1024" version="1.1" xmlns="http://www.w3.org/2000/svg" p-id="14351" width="200" height="200"><path d="M894.089552 766.089552h-764.179104c-42.029851 0-76.41791-34.38806-76.417911-76.41791V160.477612c0-42.029851 34.38806-76.41791 76.417911-76.417911h764.179104c42.029851 0 76.41791 34.38806 76.417911 76.417911v529.19403c0 42.029851-34.38806 76.41791-76.417911 76.41791zM129.910448 160.477612v529.19403h764.179104V160.477612h-764.179104zM926.567164 951.402985c-9.552239 0-17.19403-3.820896-22.925373-11.462686L859.701493 878.80597c-7.641791-9.552239-24.835821-19.104478-38.208956-19.104477H202.507463c-11.462687 0-30.567164 9.552239-38.208956 19.104477l-43.940298 61.134329c-9.552239 13.373134-26.746269 15.283582-40.119403 5.731343-11.462687-9.552239-15.283582-28.656716-5.731343-40.119403l43.940298-61.134329C135.641791 819.58209 171.940299 802.38806 202.507463 802.38806H821.492537c30.567164 0 66.865672 19.104478 84.059702 42.02985l43.940298 61.134329c9.552239 13.373134 5.731343 30.567164-5.731343 40.119403-5.731343 3.820896-11.462687 5.731343-17.19403 5.731343z" fill="#bfbfbf" p-id="14352"></path><path d="M257.910448 548.298507c-3.820896 0-9.552239-1.910448-11.462687-3.820895-7.641791-7.641791-9.552239-19.104478-1.910448-26.746269l183.402986-215.880597c3.820896-3.820896 7.641791-5.731343 13.373134-7.641791 5.731343 0 9.552239 1.910448 13.373134 5.731344l179.58209 158.567164 170.02985-173.850747c7.641791-7.641791 19.104478-7.641791 26.746269 0 7.641791 7.641791 7.641791 19.104478 0 26.746269l-183.402985 187.223881c-7.641791 7.641791-19.104478 7.641791-26.746269 0l-177.671641-158.567165-170.029851 200.597015c-3.820896 5.731343-9.552239 7.641791-15.283582 7.641791z" fill="#bfbfbf" p-id="14353"></path><path d="M257.910448 531.104478m-49.671642 0a49.671642 49.671642 0 1 0 99.343284 0 49.671642 49.671642 0 1 0-99.343284 0Z" fill="#bfbfbf" p-id="14354"></path><path d="M441.313433 319.044776m-49.671642 0a49.671642 49.671642 0 1 0 99.343284 0 49.671642 49.671642 0 1 0-99.343284 0Z" fill="#bfbfbf" p-id="14355"></path><path d="M636.179104 485.253731m-49.671641 0a49.671642 49.671642 0 1 0 99.343283 0 49.671642 49.671642 0 1 0-99.343283 0Z" fill="#bfbfbf" p-id="14356"></path></svg>
