<svg t="1628687050384" class="icon" viewBox="0 0 1024 1024" version="1.1" xmlns="http://www.w3.org/2000/svg" p-id="13741" width="200" height="200"><path d="M469.651499 939.628882a41.686806 41.686806 0 0 0-31.099681-13.233907H130.863487a17.204079 17.204079 0 0 1-16.542384-18.196621v-794.034403a17.204079 17.204079 0 0 1 17.534927-17.204079h595.525802a17.204079 17.204079 0 0 1 17.534926 17.204079V397.038707a25.47527 25.47527 0 0 0 20.843403 25.47527l59.552581 11.579668a14.557297 14.557297 0 0 0 17.865774-14.557297V22.849994a22.828489 22.828489 0 0 0-23.821033-22.828489H37.895292A22.828489 22.828489 0 0 0 15.066803 22.849994V999.181462a22.828489 22.828489 0 0 0 22.828489 22.828489H511.338305a13.895602 13.895602 0 0 0 10.587125-22.828489z" p-id="13742" fill="#bfbfbf"></path><path d="M178.505551 192.244m17.534926 0l458.554868 0q17.534926 0 17.534926 17.534927l0 61.537666q0 17.534926-17.534926 17.534926l-458.554868 0q-17.534926 0-17.534926-17.534926l0-61.537666q0-17.534926 17.534926-17.534927Z" p-id="13743" fill="#bfbfbf"></path><path d="M736.314719 478.758081a272.618478 272.618478 0 1 0 271.295088 272.618478 272.618478 272.618478 0 0 0-271.295088-272.618478z m0 451.276219a179.319436 179.319436 0 1 1 179.319436-179.319436 179.319436 179.319436 0 0 1-179.981131 179.319436z" p-id="13744" fill="#bfbfbf"></path><path d="M178.505551 381.488866m17.534926 0l392.385334 0q17.534926 0 17.534927 17.534927l0 61.537666q0 17.534926-17.534927 17.534926l-392.385334 0q-17.534926 0-17.534926-17.534926l0-61.537666q0-17.534926 17.534926-17.534927Z" p-id="13745" fill="#bfbfbf"></path><path d="M178.505551 578.012381m17.534926 0l226.9615 0q17.534926 0 17.534927 17.534926l0 61.537667q0 17.534926-17.534927 17.534926l-226.9615 0q-17.534926 0-17.534926-17.534926l0-61.537667q0-17.534926 17.534926-17.534926Z" p-id="13746" fill="#bfbfbf"></path><path d="M809.101206 745.090453h-59.221733v-89.659718a10.917973 10.917973 0 0 0-10.917973-10.917973h-37.385786a10.917973 10.917973 0 0 0-10.917973 10.917973V794.055908a10.917973 10.917973 0 0 0 10.917973 10.917973h105.540406a10.587125 10.587125 0 0 0 10.917973-10.587125v-38.37833a10.917973 10.917973 0 0 0-8.932887-10.917973z" p-id="13747" fill="#bfbfbf"></path></svg>
