<svg t="1634815982324" class="icon" viewBox="0 0 1024 1024" version="1.1" xmlns="http://www.w3.org/2000/svg" p-id="15736" width="200" height="200"><path d="M853.333333 568.888889h113.777778v56.888889h-113.777778v-56.888889z m56.888889-455.111111h56.888889v455.111111h-56.888889V113.777778z m-341.333333 284.444444h113.777778v113.777778h-113.777778V398.222222zM199.111111 56.888889H967.111111v56.888889H227.555556v56.888889H170.666667V56.888889h28.444444zM398.222222 398.222222h113.777778v113.777778H398.222222V398.222222zM227.555556 398.222222h113.777777v113.777778H227.555556V398.222222z m159.288888 341.333334L170.666667 910.222222v-170.666666H56.888889V170.666667h796.444444v568.888889H386.844444z m-22.755555-56.888889H796.444444V227.555556H113.777778v455.111111h113.777778v108.088889L364.088889 682.666667z" fill="#dbdbdb" p-id="15737"></path></svg>
