<svg t="1628686662070" class="icon" viewBox="0 0 1024 1024" version="1.1" xmlns="http://www.w3.org/2000/svg" p-id="12007" width="200" height="200"><path d="M448 480H96A32 32 0 0 1 64 448V96a32 32 0 0 1 32-32H448a32 32 0 0 1 32 32V448a32 32 0 0 1-32 32z m-320-64h288V128H128zM928 480H576a32 32 0 0 1-32-32V96A32 32 0 0 1 576 64h352a32 32 0 0 1 32 32V448a32 32 0 0 1-32 32z m-320-64H896V128H608zM448 960H96a32 32 0 0 1-32-32V576a32 32 0 0 1 32-32H448a32 32 0 0 1 32 32v352a32 32 0 0 1-32 32z m-320-64h288V608H128zM928 960H576a32 32 0 0 1-32-32V576a32 32 0 0 1 32-32h352a32 32 0 0 1 32 32v352a32 32 0 0 1-32 32z m-320-64H896V608H608z" p-id="12008" fill="#bfbfbf"></path></svg>
