<svg t="1628686948393" class="icon" viewBox="0 0 1024 1024" version="1.1" xmlns="http://www.w3.org/2000/svg" p-id="14164" width="200" height="200"><path d="M538.9312 31.4112l428.288 211.968a56.0128 56.0128 0 0 1 0 100.4288l-428.288 211.968a56.0128 56.0128 0 0 1-49.7152 0L60.928 343.808a56.0128 56.0128 0 0 1 0-100.4288l428.288-211.968a56.0128 56.0128 0 0 1 49.7152 0zM894.72 420.7616l68.352 33.792a56.0128 56.0128 0 0 1 0 100.4288l-428.288 211.968a56.0128 56.0128 0 0 1-49.7152 0l-428.288-211.968a56.0128 56.0128 0 0 1 0-100.4032l68.352-33.8176 359.936 178.1248c15.6672 7.7568 34.048 7.7568 49.7152 0l359.936-178.1248z m0 223.488l68.352 33.792a56.0128 56.0128 0 0 1 0 100.4288l-428.288 211.968a56.0128 56.0128 0 0 1-49.7152 0l-428.288-211.968a56.0128 56.0128 0 0 1 0-100.4032l68.352-33.8176 359.936 178.1248c15.6672 7.7568 34.048 7.7568 49.7152 0l359.936-178.1248z" p-id="14165" fill="#bfbfbf"></path></svg>
