<svg t="1628686975038" class="icon" viewBox="0 0 1024 1024" version="1.1" xmlns="http://www.w3.org/2000/svg" p-id="4335" width="200" height="200"><path d="M408.106667 81.024l31.168 14.016c62.485333 28.032 112.725333 59.925333 149.333333 94.741333 32.277333 30.741333 55.061333 64.874667 67.776 101.482667 18.88 54.570667 13.077333 107.690667 4.672 151.146667 20.842667-38.976 59.413333-99.541333 59.413333-99.541333l26.858667 27.029333c1.685333 1.621333 40.981333 40.789333 77.248 100.096 21.461333 35.093333 37.312 69.930667 47.253333 103.594667 12.544 42.730667 15.488 83.754667 8.725333 121.856-15.914667 89.28-123.264 162.048-241.984 216.128l-13.973333 6.421333-5.738667-14.229333c-24.938667-61.568-55.296-103.573333-82.048-140.608-34.453333-47.658667-62.912-87.082667-58.816-143.552-47.552 44.138667-68.885333 111.957333-78.421333 165.141333-12.565333 69.888-8.106667 130.794667-8.064 131.413333l2.026667 26.794667-23.68-12.736c-2.048-1.066667-50.453333-27.328-102.741333-74.282667-30.869333-27.648-56.597333-56.874667-76.565333-86.698667-25.28-37.781333-41.258667-76.842667-47.552-116.010667-14.101333-87.722667 19.925333-175.573333 101.077333-261.141333l13.546667-14.272 42.24 73.045333c17.408-18.005333 49.173333-53.525333 76.970667-98.922667 53.226667-86.976 67.541333-167.253333 42.517333-238.677333L408.106667 81.024M335.146667 1.429333l32.682667 93.653333 11.264 32.277333c20.565333 58.752 7.573333 126.826667-38.634667 202.346667-10.944 17.877333-22.592 34.133333-33.536 48.128l-12.352-21.333333-28.586667-49.408-39.296 41.408-13.546667 14.272c-90.794667 95.722667-128.576 195.733333-112.256 297.28 7.296 45.354667 25.536 90.090667 54.229333 132.949333 22.08 33.002667 50.197333 64.896 83.562667 94.762667 57.472 51.626667 110.976 80.085333 111.509333 80.362667l23.168 12.458667 68.650667 36.885333-5.888-77.717333-2.026667-26.794667c-0.042667-0.533333-3.946667-56.917333 7.509333-120.64 3.669333-20.48 9.472-44.437333 18.602667-67.925333 11.904 21.994667 26.816 42.645333 42.069333 63.765333 26.581333 36.778667 54.058667 74.816 77.077333 131.626667l5.696 14.144 16.704 41.493333 40.661333-18.666667 13.973333-6.421333c160.362667-73.045333 249.962667-156.309333 266.197333-247.402667 7.914667-44.714667 4.629333-92.245333-9.792-141.376-11.050667-37.44-28.458667-75.712-51.797333-113.834667-39.978667-65.386667-83.626667-108.16-84.032-108.565333l-26.197333-26.368-37.610667-37.824-11.52 18.090667c-1.450667-5.226667-3.093333-10.474667-4.906667-15.744-14.954667-43.114667-41.408-82.944-78.656-118.421333-40.128-38.186667-94.4-72.768-161.301333-102.784l-31.146667-14.016L335.146667 1.429333 335.146667 1.429333z" p-id="4336" fill="#bfbfbf"></path></svg>
