<svg t="1628685721734" class="icon" viewBox="0 0 1024 1024" version="1.1" xmlns="http://www.w3.org/2000/svg" p-id="3642" width="200" height="200"><path d="M512 1024C229.248 1024 0 794.752 0 512S229.248 0 512 0s512 229.248 512 512-229.248 512-512 512z m0-938.666667C276.352 85.333333 85.333333 276.352 85.333333 512s191.018667 426.666667 426.666667 426.666667 426.666667-191.018667 426.666667-426.666667S747.648 85.333333 512 85.333333z m0 768a340.650667 340.650667 0 0 1-266.24-128A340.650667 340.650667 0 0 1 512 597.333333a340.48 340.48 0 0 1 266.197333 128A340.48 340.48 0 0 1 512 853.333333z m0-298.666666a170.666667 170.666667 0 1 1 0-341.333334 170.666667 170.666667 0 0 1 0 341.333334z" p-id="3643"></path></svg>
