<svg t="1628685870313" class="icon" viewBox="0 0 1036 1024" version="1.1" xmlns="http://www.w3.org/2000/svg" p-id="6206" data-spm-anchor-id="a313x.7781069.0.i28" width="200" height="200"><path d="M368.739659 63.174483h122.867714v450.514948h-122.867714z" fill="#BCBCBC" p-id="6207" data-spm-anchor-id="a313x.7781069.0.i29" class=""></path><path d="M19.772601 1023.294648V899.641947h429.957359v123.652701zM62.412248 552.335878V428.683176h194.335766V552.335878z" fill="#bfbfbf" p-id="6208" data-spm-anchor-id="a313x.7781069.0.i32" class="selected"></path><path d="M0 1024h123.652701l62.571521-594.497706H62.571521L0 1024zM479.741537 1024H356.088836l-29.579265-361.276583h123.652702l29.579264 361.276583zM586.329278 1023.294648V899.641947h429.95736v123.652701zM779.311224 552.324501V428.671799h194.335767v123.652702z" fill="#bfbfbf" p-id="6209" data-spm-anchor-id="a313x.7781069.0.i31" class="selected"></path><path d="M1036.059239 1024H912.406537l-62.571521-594.497706h123.652702l62.571521 594.497706zM556.317702 1024h123.652701l29.579264-361.276583H585.896966l-29.579264 361.276583zM315.269451 594.611472V470.958771h429.95736v123.652701zM347.055783 123.652701V0h356.669045v123.652701z" fill="#bfbfbf" p-id="6210" data-spm-anchor-id="a313x.7781069.0.i30" class="selected"></path><path d="M272.74357 594.497706h123.652701L458.967792 0H335.315091l-62.571521 594.497706zM766.137075 594.497706H642.484374L579.912853 0h123.652702l62.57152 594.497706z" fill="#bfbfbf" p-id="6211" data-spm-anchor-id="a313x.7781069.0.i27" class="selected"></path></svg>
