<svg t="1628686024759" class="icon" viewBox="0 0 1024 1024" version="1.1" xmlns="http://www.w3.org/2000/svg" p-id="8398" width="200" height="200"><path d="M262.792 358.772h498.415c22.47 0 40.676-18.213 40.676-40.676s-18.206-40.677-40.676-40.677H262.792c-22.463 0-40.676 18.213-40.676 40.677s18.213 40.676 40.676 40.676zM262.792 738.403l213.894 0.014c22.456 0 40.676-18.213 40.676-40.677s-18.207-40.676-40.676-40.676l-213.894-0.013c-22.463 0-40.676 18.212-40.676 40.676 0 22.464 18.206 40.676 40.676 40.676zM262.792 548.594h498.415c22.47 0 40.676-18.212 40.676-40.676s-18.206-40.676-40.676-40.676H262.792c-22.463 0-40.676 18.212-40.676 40.676s18.213 40.676 40.676 40.676z" fill="#bfbfbf" p-id="8399"></path><path d="M764.928 78.118H259.07c-107.251 0-194.509 87.257-194.509 194.51v478.718c0 107.265 87.258 194.536 194.51 194.536h215.615c22.47 0 40.677-18.207 40.677-40.677s-18.207-40.676-40.677-40.676H259.071c-62.398 0-113.157-50.779-113.157-113.184V272.627c0-62.398 50.76-113.157 113.157-113.157h505.857c62.39 0 113.157 50.759 113.157 113.157v340.054H798.56c-97.189 0-176.264 79.075-176.264 176.27v111.66c0 9.69 3.525 18.465 9.178 25.45 7.113 11.829 19.944 19.82 34.756 19.82h44.462c33.209 0 83.63-34.028 149.848-101.16 65.622-66.509 98.897-116.176 98.897-147.616V272.627c0-107.252-87.258-194.509-194.51-194.509zM708.244 864.53h-4.595v-75.58c0-52.334 42.583-94.917 94.91-94.917h79.47c-13.905 37.593-134.65 158.961-169.785 170.497z" fill="#bfbfbf" p-id="8400"></path></svg>
